<svg version="1.1" id="Layer_1" xmlns="http://www.w3.org/2000/svg" xmlns:xlink="http://www.w3.org/1999/xlink" x="0px" y="0px"
	 width="100%" viewBox="0 0 496 496" enable-background="new 0 0 496 496" xml:space="preserve">
<path fill="#000000" opacity="1.000000" stroke="none" 
	d="
M292.134186,332.947449 
	C299.961151,351.764160 310.946167,368.034668 325.576630,382.070679 
	C315.861877,385.651764 303.005341,380.630066 296.644012,370.815704 
	C288.949097,358.943756 286.126038,345.436523 284.157990,330.360565 
	C274.275818,339.412109 264.910614,347.990173 255.545425,356.568207 
	C255.125092,356.308350 254.704758,356.048523 254.284424,355.788696 
	C275.841522,315.914978 286.325226,273.403290 284.995239,228.040970 
	C274.056183,264.067139 263.117096,300.093292 252.178024,336.119446 
	C251.652206,336.173767 251.126404,336.228119 250.600586,336.282440 
	C238.186172,300.975037 228.341873,264.829224 216.897018,228.873688 
	C214.606400,239.051224 217.169968,268.979950 223.450806,294.254059 
	C228.796524,315.765137 237.123642,336.145935 247.660782,355.674957 
	C247.291565,355.956177 246.922333,356.237427 246.553116,356.518646 
	C238.376144,349.219818 230.199188,341.920959 221.197952,333.886353 
	C219.420761,343.672485 217.324036,352.161346 214.283630,360.387634 
	C210.998688,369.275574 206.185089,376.839935 197.089233,380.780518 
	C191.850525,383.050079 186.461075,384.193817 180.787842,382.759521 
	C180.437805,380.356323 182.177063,379.592590 183.294174,378.477966 
	C196.572144,365.229218 206.513229,349.783569 213.596527,332.462006 
	C215.064850,328.871368 215.002563,328.845886 212.488312,325.949493 
	C210.408890,326.608856 210.320984,328.712952 209.631454,330.246033 
	C206.134781,338.020325 202.109940,345.478210 197.029694,352.341003 
	C191.639252,359.622864 184.618942,364.389526 175.576920,365.745789 
	C167.654800,366.934113 159.705231,366.042633 151.576675,366.063354 
	C151.519028,362.994476 153.820801,362.567108 155.364960,361.658661 
	C172.336792,351.674316 187.487564,339.608551 199.261780,323.630219 
	C203.624008,317.710419 203.580307,317.769897 198.794861,312.322510 
	C189.073471,301.256439 188.501373,288.303345 191.095169,274.672363 
	C194.371704,257.453217 201.483551,241.728775 209.806183,226.296646 
	C200.181580,233.455246 188.282516,252.955704 184.512238,268.025696 
	C180.431366,284.337006 181.526428,300.782959 184.449844,317.241547 
	C184.002319,317.376068 183.554794,317.510590 183.107269,317.645111 
	C176.508331,309.169495 169.872818,300.722015 163.327896,292.204926 
	C160.588135,288.639618 157.936844,284.996490 155.425507,281.267395 
	C148.396011,270.829224 149.184814,261.645477 157.786224,252.275131 
	C168.356903,240.759476 181.372833,232.853073 195.565277,226.684891 
	C196.773788,226.159637 197.994705,225.662918 199.005569,224.541473 
	C195.719498,225.591949 192.437668,226.655975 189.146164,227.689194 
	C185.657471,228.784302 182.151230,229.823975 178.667236,230.933578 
	C167.565292,234.469376 156.420883,237.881210 145.387558,241.620255 
	C136.220688,244.726776 128.440750,242.594254 121.330345,236.433609 
	C111.131210,227.596832 100.836166,218.870758 90.583595,210.095627 
	C89.456421,209.130890 88.123550,208.357178 87.041229,205.584320 
	C122.886894,210.089951 158.025909,215.407272 193.607452,216.395004 
	C176.258759,213.371201 158.888062,210.467148 141.568008,207.287384 
	C126.534103,204.527328 111.254486,203.159653 96.401260,199.414230 
	C84.503014,196.413910 75.406036,189.607361 69.380859,178.835693 
	C61.005188,163.861877 52.624168,148.891006 44.282696,133.898132 
	C43.572929,132.622437 42.676952,131.325043 43.358685,128.245590 
	C91.193405,156.996521 139.711380,183.574310 190.429764,205.993408 
	C182.650238,201.415573 174.917862,196.755325 167.083145,192.273972 
	C130.933853,171.597076 94.758553,150.965607 58.587315,130.327087 
	C43.368675,121.643677 33.804798,108.464821 28.042048,92.192299 
	C22.652391,76.973289 17.153917,61.794014 13.329978,46.075039 
	C12.833177,44.032852 12.227382,42.050732 12.709247,39.964500 
	C14.984263,39.738499 15.535153,41.422001 16.326113,42.551281 
	C42.776257,80.315041 77.688019,108.357712 117.389122,131.014679 
	C138.511307,143.068863 159.311111,155.687317 180.411331,167.780823 
	C196.998550,177.287750 206.764435,191.741577 212.338837,209.584335 
	C215.359375,219.252594 217.488495,219.896698 225.427094,213.383224 
	C234.682785,205.789062 237.556396,195.695557 235.432480,184.214722 
	C234.210403,177.608734 228.480164,173.971970 220.801559,173.922104 
	C218.843277,173.909378 216.051086,175.481247 215.191040,172.478806 
	C214.429504,169.820251 215.508972,167.216400 217.469223,165.169724 
	C219.386185,163.168274 221.835526,162.029205 224.524811,161.739777 
	C228.747803,161.285263 232.443436,159.731628 236.188080,157.741364 
	C253.368744,148.609833 278.451599,164.538483 278.112976,184.413116 
	C277.961456,193.306656 277.679779,202.091583 282.225983,210.176224 
	C283.349335,212.173935 284.245819,214.341156 286.686035,216.113083 
	C287.786865,213.319870 288.914185,210.795578 289.788605,208.186508 
	C295.827606,190.167740 306.054596,176.318359 323.374786,166.668579 
	C352.749420,150.302750 381.999176,133.575867 410.076996,114.999321 
	C439.526794,95.515053 464.981262,71.744530 485.205292,42.614296 
	C486.481689,40.775803 486.509003,40.794762 489.401672,39.675426 
	C490.564758,40.550617 490.310913,41.737267 489.965546,42.836300 
	C484.479340,60.293480 479.631226,77.969307 473.013519,95.045174 
	C466.411163,112.081413 454.318756,124.316925 438.465515,133.080795 
	C397.936249,155.485840 357.659180,178.335693 317.697449,201.739594 
	C316.577667,202.395432 315.478546,203.086563 314.614532,204.206726 
	C364.252045,182.246429 411.836090,156.369141 458.233124,128.227951 
	C459.834656,130.750366 458.430023,132.062927 457.670685,133.424515 
	C448.826904,149.282089 440.007355,165.153702 431.058960,180.952286 
	C423.536835,194.232849 411.051971,199.058670 396.780579,201.330185 
	C368.215118,205.876877 339.714203,210.828873 311.189911,215.633194 
	C310.227478,215.795303 309.300720,216.169128 306.917084,216.864288 
	C343.840973,215.221191 378.930054,210.243393 413.912292,205.110489 
	C414.769714,207.630875 413.119720,208.298004 412.074951,209.200470 
	C401.235535,218.562988 390.439941,227.978394 379.483337,237.202347 
	C372.107086,243.412155 363.872192,244.795822 354.757507,241.082993 
	C337.002472,233.850571 318.396942,229.219131 300.013977,223.764999 
	C305.798523,226.189606 311.419434,228.935074 316.949890,231.863495 
	C327.645050,237.526688 337.396851,244.434814 345.201691,253.787628 
	C351.479279,261.310333 352.947876,269.832581 348.004791,278.365875 
	C339.806854,292.518066 328.696533,304.566467 318.020660,317.603180 
	C323.963867,282.534607 318.202057,251.003235 292.083740,225.328278 
	C296.212036,234.963547 301.149658,244.256393 304.734772,254.157867 
	C308.144135,263.574005 311.292297,273.062164 311.871002,283.104828 
	C312.462463,293.368622 309.935547,302.971344 303.689270,311.274780 
	C301.432617,314.274628 301.401489,316.492706 303.526428,319.639557 
	C315.345306,337.142303 330.993774,350.331696 349.021912,360.964417 
	C350.932007,362.090973 353.380127,362.684845 354.325104,365.141602 
	C340.425751,370.581390 319.207764,365.300201 309.984680,354.129456 
	C303.448212,346.212616 298.867310,337.161560 294.874634,327.779114 
	C294.302734,326.435181 293.719452,325.096039 293.154816,323.785797 
	C288.851105,325.122742 289.238190,325.442963 292.134186,332.947449 
z"/>
<path fill="#000000" opacity="1.000000" stroke="none" 
	d="
M324.094177,425.881561 
	C320.196594,425.904388 316.685028,425.690308 313.209595,425.953674 
	C297.252747,427.162964 285.737701,420.405090 277.468536,406.964661 
	C270.957550,396.381897 265.871826,385.243378 262.973480,373.190765 
	C260.284576,362.009186 264.405060,352.646698 271.628540,344.336853 
	C272.481110,343.356018 273.431732,342.326416 275.120087,342.832672 
	C275.918823,345.007568 274.331604,346.584534 273.548065,348.287628 
	C268.546722,359.158569 269.207275,369.304565 276.089294,379.402161 
	C288.079132,396.994263 303.795319,410.247467 322.088470,420.730408 
	C323.528137,421.555389 324.916565,422.476685 326.278961,423.424866 
	C326.641724,423.677399 326.819366,424.195862 327.040253,424.529205 
	C326.537659,425.840332 325.449860,425.713715 324.094177,425.881561 
z"/>
<path fill="#000000" opacity="1.000000" stroke="none" 
	d="
M228.927109,343.358673 
	C239.116104,353.889221 241.818222,365.566864 237.173599,379.369720 
	C232.487686,393.295227 226.170792,406.106201 216.102859,416.929352 
	C210.802994,422.626740 204.286011,425.361969 196.544846,425.340210 
	C189.466858,425.320343 182.388763,425.335999 175.221802,425.335999 
	C175.373871,422.608521 177.087555,422.351227 178.284271,421.632690 
	C195.844971,411.088837 211.681091,398.727570 223.857758,381.853973 
	C231.847168,370.782806 234.094360,359.753540 227.756790,347.383606 
	C227.077408,346.057556 226.619003,344.614990 226.111328,343.207245 
	C226.015717,342.942108 226.172913,342.585815 226.218246,342.234375 
	C227.437469,341.421082 227.939590,342.638580 228.927109,343.358673 
z"/>
<path fill="#000000" opacity="1.000000" stroke="none" 
	d="
M254.242493,404.008972 
	C256.134186,413.200775 258.152618,421.941589 259.765167,430.756592 
	C261.923096,442.552734 258.272430,452.979218 252.005081,462.671967 
	C249.137756,462.387207 248.444763,460.292175 247.437943,458.701508 
	C241.928543,449.997559 240.388351,440.273254 241.952850,430.393890 
	C243.742126,419.095154 246.625717,407.968628 249.087524,396.779114 
	C249.325607,395.696960 249.942291,394.698090 250.560425,393.243591 
	C253.599319,396.396606 252.852646,400.370819 254.242493,404.008972 
z"/>
<path fill="#000000" opacity="1.000000" stroke="none" 
	d="
M208.539978,436.575745 
	C219.417023,425.736267 227.434372,413.433533 233.216843,399.601013 
	C236.527328,391.681854 240.144089,383.890717 244.190735,374.760925 
	C245.972534,380.171387 245.471451,384.269440 245.116623,388.203461 
	C243.991699,400.676025 241.152145,412.763336 235.947250,424.222748 
	C230.641327,435.904663 221.524307,442.122986 208.791840,443.089844 
	C207.197571,443.210876 205.410034,443.542816 204.281876,441.693268 
	C204.746948,439.375488 206.969070,438.461945 208.539978,436.575745 
z"/>
<path fill="#000000" opacity="1.000000" stroke="none" 
	d="
M256.908264,390.636383 
	C256.708008,385.216583 256.353546,380.254425 257.665314,374.993347 
	C266.239838,400.217499 278.644379,423.072021 298.376221,441.749573 
	C288.301331,445.338135 274.211823,439.181915 268.356201,429.007904 
	C262.484802,418.806549 259.283661,407.652679 257.666992,396.027527 
	C257.438416,394.383881 257.197296,392.741913 256.908264,390.636383 
z"/>
</svg>